<?xml version="1.0" encoding="utf-8"?>
<!-- Generator: Adobe Illustrator 21.0.2, SVG Export Plug-In . SVG Version: 6.00 Build 0)  -->
<svg version="1.1"
	 id="Layer_1" inkscape:export-filename="C:\Users\sam\Desktop\clarisse_ifx_logo.png" inkscape:export-xdpi="46.689999" inkscape:export-ydpi="46.689999" inkscape:version="0.48.1 " sodipodi:docname="clarisse_ifx_simple.svg" xmlns:cc="http://creativecommons.org/ns#" xmlns:dc="http://purl.org/dc/elements/1.1/" xmlns:inkscape="http://www.inkscape.org/namespaces/inkscape" xmlns:rdf="http://www.w3.org/1999/02/22-rdf-syntax-ns#" xmlns:sodipodi="http://sodipodi.sourceforge.net/DTD/sodipodi-0.dtd" xmlns:svg="http://www.w3.org/2000/svg"
	 xmlns="http://www.w3.org/2000/svg" xmlns:xlink="http://www.w3.org/1999/xlink" x="0px" y="0px" viewBox="0 0 669.8 302.5"
	 style="enable-background:new 0 0 669.8 302.5;" xml:space="preserve">
<style type="text/css">
	.st0{fill:#EB661F;}
	.st1{fill:#FFFFFF;}
	.st2{fill:#B1BECB;}
</style>
<sodipodi:namedview  bordercolor="#666666" borderopacity="1" gridtolerance="10" guidetolerance="10" id="namedview3029" inkscape:current-layer="g3019" inkscape:cx="502.87508" inkscape:cy="-81.213801" inkscape:pageopacity="0" inkscape:pageshadow="2" inkscape:window-height="1138" inkscape:window-maximized="1" inkscape:window-width="1920" inkscape:window-x="-8" inkscape:window-y="-8" inkscape:zoom="1.3699974" objecttolerance="10" pagecolor="#ffffff" showgrid="false" width="1052.36px">
	</sodipodi:namedview>
<g id="flowRoot3058" transform="translate(0,102.30108)">
</g>
<g>
	<path class="st0" d="M-0.1,198.5c7.8,0.1,15.5,0.2,23.3,0.2c-6.5-6.1-11.5-13.7-13.9-22.2c-0.2,0.2-0.4,0.4-0.5,0.5
		c-2.8,3.4-6.3,5.7-8.9,9.2C-0.1,186.2-0.1,198.5-0.1,198.5z"/>
	<path class="st0" d="M111.5,194.5C74.8,204.2,37.6,205.8-0.1,205v11c37.3,0.2,75-0.9,111.6-9.6V194.5z"/>
	<path class="st0" d="M111.5,181.7c-8.7,0.9-45.5,0.4-45.5-29.9c0-26,38.1-30.4,45.5-29.3v-13.7c-33.8,10.1-64.4,27.3-88.6,53.2
		c1.8,14.9,11.3,28.8,24.8,36.2c21.4-0.5,42.9-4.1,63.8-9.7V181.7z"/>
	<path class="st0" d="M111.5,77C78,87.1,45,103.5,19.5,127.9c-7.2,6.8-13.7,14.6-19.5,22.7v26.2c18.3-19,35.7-39.9,59.4-53
		c16.5-9.2,34-16.4,52.2-21.4L111.5,77L111.5,77z"/>
</g>
<g>
	<polygon class="st1" points="213.4,190.8 236.8,190.8 236.8,190.7 236.8,77 213.4,77 	"/>
	<path class="st1" d="M287.3,108.5c-7.9,0.3-14.3,0.9-20,2.3c-5.6,1.2-8.7,2.3-8.9,2.4V129c0-0.3,2.6-1.1,7.6-2.3
		c5-1.5,11.5-2.1,19.6-2.3c5.9,0,10,1.5,12.6,4.2s3.8,6.4,3.8,10.6c0,0-1.8-0.4-4.9-1.2c-3-0.8-7-1.5-11.8-1.5
		c-9.4,0-17.1,2.7-23.6,7.4c-6.5,4.9-10,11.3-10.3,19.8c0.3,9.4,2.7,16.2,8.1,20.3c5.3,4.1,11.9,6.4,20,6.4c5.3,0,9.6-1.1,13.4-3
		c3.6-2.3,6.8-5.5,8.9-10c0,0-0.4,5.8,1.6,12.8c0.1,0.3,0.1,0.5,0.2,0.5H325v-47.4c0-10-3-18.1-8.8-24.6
		C310.1,111.9,300.6,108.7,287.3,108.5z M297.6,169.5c-3,3.3-6.8,5-11.1,5c-3,0-5.8-0.9-7.7-2.7c-2.1-1.8-3.3-4.4-3.3-7.9
		c0-4.2,1.2-7,3.9-8.8c2.6-2,5.8-2.7,9.4-2.7c3.8,0.2,6.8,0.2,9.4,0.6c2.6,0.3,3.8,0.4,3.8,0.4l0.1,2.3
		C302.1,161.9,300.3,166.4,297.6,169.5z"/>
	<rect x="408.7" y="111.8" class="st1" width="23.1" height="79"/>
	<path class="st1" d="M499.8,151c-5-4.2-12.7-8.5-22.7-12.6c-2.1-0.9-3.6-2-4.5-3c-0.8-1.2-1.2-2.4-1.2-4.2c0-2.4,1.1-4.2,3-5
		c2.3-1.3,4.5-1.8,7.9-1.8c5.8,0,10.3,0.4,14.2,1.2c3.8,0.6,5.6,1.1,5.8,1.2v-16.3c-0.3,0-1.8-0.4-5-1.1c-3.3-0.7-7.7-0.9-13.4-1.1
		c-12.6,0.3-21.9,2.7-27.9,7.3c-5.9,4.9-8.9,9.9-8.9,15.6c0,7.1,1.8,12.6,5.3,16.2c3.2,3.8,8.3,7.3,14.9,9.8
		c5.3,2.3,9.4,4.4,11.8,6.2c2.7,1.8,3.9,3.6,3.9,5.8c0,1.2-0.9,2.4-2.4,3.5s-3.8,1.7-7,1.7c-7.1-0.2-13.3-0.7-18.1-1.5
		c-4.9-0.9-7.3-1.5-7.6-1.5v15.9c0.3,0,2.6,0.4,7.3,1.5c4.5,0.9,10.9,1.2,18.5,1.5c11.5-0.2,20.1-2.3,25.3-6.1
		c5.5-4.2,8.1-9.6,7.9-16.5C507,160.5,504.7,155,499.8,151z"/>
	<path class="st1" d="M571,151c-5-4.2-12.6-8.5-22.6-12.6c-2.1-0.9-3.6-2-4.5-3c-0.8-1.2-1.2-2.4-1.2-4.2c0-2.4,1.1-4.2,3-5
		c2-1.3,4.5-1.8,7.9-1.8c5.8,0,10.3,0.4,14.2,1.2c3.8,0.6,5.6,1.1,5.6,1.2v-16.3c0,0-1.5-0.4-4.9-1.1c-3.3-0.7-7.6-0.9-13.3-1.1
		c-12.6,0.3-21.9,2.7-27.9,7.3c-6.2,4.9-9,9.9-9,15.6c0,7.1,1.8,12.6,5.3,16.2c3.3,3.8,8.3,7.3,14.9,9.8c5.5,2.3,9.6,4.4,11.9,6.2
		c2.6,1.8,3.9,3.6,3.9,5.8c0,1.2-0.9,2.4-2.4,3.5s-3.8,1.7-7,1.7c-7.1-0.2-13.3-0.7-18.1-1.5c-4.9-0.9-7.4-1.5-7.6-1.5v15.9
		c0.3,0,2.6,0.4,7.3,1.5c4.5,0.9,10.9,1.2,18.5,1.5c11.5-0.2,20-2.3,25.2-6.1c5.3-4.2,7.9-9.6,7.6-16.5
		C577.8,160.5,575.5,155,571,151z"/>
	<path class="st1" d="M659.4,119.3c-7-7-16.8-10.4-29.1-10.7c-11.3,0.3-21.1,3.9-29,11.3c-8.1,7.3-12.1,17-12.4,29.6
		c0.3,14.3,4.9,25,13.7,31.4c8.7,6.5,18.9,9.6,30.9,9.6c8.9-0.2,15.6-0.8,20.6-2c4.9-1.1,7.4-1.5,7.4-1.8v-10v-6.1
		c-0.3,0.3-3.3,0.9-8.8,2c-5.6,1.1-11.5,1.8-17.6,2c-7.4,0-13-1.5-17.3-4.9c-3.8-2.7-6.2-7.9-7-15h58.4c0,0,0.3-1.1,0.3-2.7
		c0.3-1.5,0.3-3.5,0.3-5.5C669.8,135.1,666.4,126.1,659.4,119.3z M611.5,140c0.9-4.5,2.6-8.3,5.5-11.3c2.6-2.6,7.1-4.4,13.1-4.4
		c5.5,0,9.8,1.2,12.8,3.8c3.3,2.9,5,6.5,5,11.9L611.5,140L611.5,140z"/>
	<path class="st1" d="M190.3,173c-3.9,0.8-8.3,1.2-12.9,1.5c-8.8-0.2-15.5-2.7-20-7.4c-4.7-4.7-6.8-10.4-6.8-17.7
		c0-7.1,2.1-13,6.8-17.6c4.5-4.9,11.1-7.1,20-7.3c4.7,0.3,8.9,0.6,12.9,1.5c2.1,0.4,3.8,0.7,5,0.9V111c-1.3-0.3-3.3-0.7-5.9-1.3
		c-4.5-0.9-9.8-1.1-15.2-1.3c-28.5-0.3-38.8,7.9-44.9,27c-1.3,4.2-2.3,9.3-2.3,13.8c0,0.4,0,0.8,0,1.1c0.4,11.4,4.9,22.4,13.9,29.6
		c8.7,6.8,19.9,10.3,33.4,10.3c5.3-0.2,10.6-0.6,15.2-1.5c2.7-0.6,4.7-1,5.9-1.2V172h-0.1C194.1,172.2,192.5,172.5,190.3,173z"/>
	<path class="st1" d="M367,127.3c0,0,0.4-10.6-1.5-15.5H344v79h23.1V159c-0.4-11.1,1.2-19,5-23.7c3.8-4.5,11.9-6.8,24.9-6.5v-18.3
		c-8.3,0.1-14.7,1.4-19.8,4.4C372.1,117.6,368.9,121.8,367,127.3z"/>
	<ellipse class="st1" cx="420.2" cy="92.9" rx="13.2" ry="12.4"/>
</g>
<g>
	<polygon class="st2" points="669.8,205.3 658.5,205.3 650.3,219.5 646.7,205.6 643.9,205.6 636.4,205.6 608,205.6 599.8,246.1 
		609.2,246.1 612.5,229.6 626.9,229.6 628.3,222.8 613.8,222.8 616,212.4 638.8,212.4 643.4,225.4 628.4,246.1 639.5,246.1 
		648.4,232.1 652.1,246.1 662.6,246.1 655.4,226 	"/>
	<g>
		<polygon class="st2" points="599.5,212.5 601,205.6 591.4,205.6 589.9,212.5 		"/>
		<polygon class="st2" points="588.6,219.1 583.1,246.1 592.1,246.1 597.6,219.1 		"/>
	</g>
</g>
</svg>
